<mxfile host="app.diagrams.net" modified="2023-02-23T10:21:57.411Z" agent="5.0 (Macintosh; Intel Mac OS X 10_15_7) AppleWebKit/537.36 (KHTML, like Gecko) Chrome/110.0.0.0 Safari/537.36" etag="bz184MGPqa4TjR6G5Lkj" version="20.8.23" type="github">
  <diagram name="Page-1" id="MHgPWZ-x2iLYNriJn5IH">
    <mxGraphModel dx="1590" dy="1080" grid="1" gridSize="10" guides="1" tooltips="1" connect="1" arrows="1" fold="1" page="1" pageScale="1" pageWidth="850" pageHeight="1100" math="0" shadow="0">
      <root>
        <mxCell id="0" />
        <mxCell id="1" parent="0" />
        <mxCell id="UNdekYCQ5oSGI6_yDiEU-8" value="" style="edgeStyle=orthogonalEdgeStyle;rounded=0;orthogonalLoop=1;jettySize=auto;html=1;" edge="1" parent="1" source="UNdekYCQ5oSGI6_yDiEU-1" target="UNdekYCQ5oSGI6_yDiEU-7">
          <mxGeometry relative="1" as="geometry" />
        </mxCell>
        <mxCell id="UNdekYCQ5oSGI6_yDiEU-1" value="staff melihat jadwal" style="ellipse;whiteSpace=wrap;html=1;fillColor=#d5e8d4;strokeColor=#82b366;strokeWidth=2;" vertex="1" parent="1">
          <mxGeometry x="90" y="240" width="120" height="80" as="geometry" />
        </mxCell>
        <mxCell id="UNdekYCQ5oSGI6_yDiEU-18" value="" style="edgeStyle=orthogonalEdgeStyle;rounded=0;orthogonalLoop=1;jettySize=auto;html=1;" edge="1" parent="1" source="UNdekYCQ5oSGI6_yDiEU-2" target="UNdekYCQ5oSGI6_yDiEU-17">
          <mxGeometry relative="1" as="geometry" />
        </mxCell>
        <mxCell id="UNdekYCQ5oSGI6_yDiEU-2" value="staff upload &lt;br&gt;progress&lt;br&gt;latihan" style="ellipse;whiteSpace=wrap;html=1;fillColor=#d5e8d4;strokeColor=#82b366;strokeWidth=2;" vertex="1" parent="1">
          <mxGeometry x="90" y="590" width="120" height="80" as="geometry" />
        </mxCell>
        <mxCell id="UNdekYCQ5oSGI6_yDiEU-3" style="edgeStyle=orthogonalEdgeStyle;rounded=0;orthogonalLoop=1;jettySize=auto;html=1;entryX=0.5;entryY=0;entryDx=0;entryDy=0;fontColor=#FFFFFF;" edge="1" parent="1" source="UNdekYCQ5oSGI6_yDiEU-4" target="UNdekYCQ5oSGI6_yDiEU-5">
          <mxGeometry relative="1" as="geometry" />
        </mxCell>
        <mxCell id="UNdekYCQ5oSGI6_yDiEU-4" value="Start" style="ellipse;whiteSpace=wrap;html=1;aspect=fixed;fillColor=#d5e8d4;strokeColor=#82b366;fontStyle=1;strokeWidth=2;" vertex="1" parent="1">
          <mxGeometry x="115" y="20" width="70" height="70" as="geometry" />
        </mxCell>
        <mxCell id="UNdekYCQ5oSGI6_yDiEU-6" value="" style="edgeStyle=orthogonalEdgeStyle;rounded=0;orthogonalLoop=1;jettySize=auto;html=1;" edge="1" parent="1" source="UNdekYCQ5oSGI6_yDiEU-5" target="UNdekYCQ5oSGI6_yDiEU-1">
          <mxGeometry relative="1" as="geometry" />
        </mxCell>
        <mxCell id="UNdekYCQ5oSGI6_yDiEU-5" value="Sesi latihan dalam jadwal&lt;br&gt;telah selesaic(berlalu)" style="rounded=1;whiteSpace=wrap;html=1;fontSize=12;glass=0;strokeWidth=1;shadow=0;" vertex="1" parent="1">
          <mxGeometry x="50" y="130" width="200" height="70" as="geometry" />
        </mxCell>
        <mxCell id="UNdekYCQ5oSGI6_yDiEU-13" value="" style="edgeStyle=orthogonalEdgeStyle;rounded=0;orthogonalLoop=1;jettySize=auto;html=1;" edge="1" parent="1" source="UNdekYCQ5oSGI6_yDiEU-7" target="UNdekYCQ5oSGI6_yDiEU-12">
          <mxGeometry relative="1" as="geometry" />
        </mxCell>
        <mxCell id="UNdekYCQ5oSGI6_yDiEU-16" value="" style="edgeStyle=orthogonalEdgeStyle;rounded=0;orthogonalLoop=1;jettySize=auto;html=1;" edge="1" parent="1" source="UNdekYCQ5oSGI6_yDiEU-7" target="UNdekYCQ5oSGI6_yDiEU-15">
          <mxGeometry relative="1" as="geometry" />
        </mxCell>
        <mxCell id="UNdekYCQ5oSGI6_yDiEU-7" value="client&lt;br&gt;datang?" style="rhombus;whiteSpace=wrap;html=1;fillColor=#dae8fc;strokeColor=#6c8ebf;" vertex="1" parent="1">
          <mxGeometry x="105" y="360" width="90" height="90" as="geometry" />
        </mxCell>
        <mxCell id="UNdekYCQ5oSGI6_yDiEU-10" value="ya" style="text;html=1;strokeColor=none;fillColor=none;align=center;verticalAlign=middle;whiteSpace=wrap;rounded=0;" vertex="1" parent="1">
          <mxGeometry x="100" y="450" width="60" height="30" as="geometry" />
        </mxCell>
        <mxCell id="UNdekYCQ5oSGI6_yDiEU-11" value="Tidak" style="text;html=1;strokeColor=none;fillColor=none;align=center;verticalAlign=middle;whiteSpace=wrap;rounded=0;" vertex="1" parent="1">
          <mxGeometry x="200" y="370" width="60" height="30" as="geometry" />
        </mxCell>
        <mxCell id="UNdekYCQ5oSGI6_yDiEU-14" value="" style="edgeStyle=orthogonalEdgeStyle;rounded=0;orthogonalLoop=1;jettySize=auto;html=1;" edge="1" parent="1" source="UNdekYCQ5oSGI6_yDiEU-12" target="UNdekYCQ5oSGI6_yDiEU-2">
          <mxGeometry relative="1" as="geometry" />
        </mxCell>
        <mxCell id="UNdekYCQ5oSGI6_yDiEU-12" value="staff memberi keterangan&lt;br&gt;client datang" style="shape=parallelogram;perimeter=parallelogramPerimeter;whiteSpace=wrap;html=1;fixedSize=1;strokeWidth=1;fillColor=#fff2cc;strokeColor=#d6b656;" vertex="1" parent="1">
          <mxGeometry x="57.5" y="500" width="185" height="50" as="geometry" />
        </mxCell>
        <mxCell id="UNdekYCQ5oSGI6_yDiEU-19" style="edgeStyle=orthogonalEdgeStyle;rounded=0;orthogonalLoop=1;jettySize=auto;html=1;" edge="1" parent="1" source="UNdekYCQ5oSGI6_yDiEU-15" target="UNdekYCQ5oSGI6_yDiEU-17">
          <mxGeometry relative="1" as="geometry" />
        </mxCell>
        <mxCell id="UNdekYCQ5oSGI6_yDiEU-15" value="staff memberi keterangan&lt;br&gt;client tidak datang" style="shape=parallelogram;perimeter=parallelogramPerimeter;whiteSpace=wrap;html=1;fixedSize=1;strokeWidth=1;fillColor=#fff2cc;strokeColor=#d6b656;" vertex="1" parent="1">
          <mxGeometry x="260" y="380" width="185" height="50" as="geometry" />
        </mxCell>
        <mxCell id="UNdekYCQ5oSGI6_yDiEU-17" value="End" style="ellipse;whiteSpace=wrap;html=1;aspect=fixed;fillColor=#f8cecc;strokeColor=#b85450;fontStyle=1;strokeWidth=2;" vertex="1" parent="1">
          <mxGeometry x="317.5" y="595" width="70" height="70" as="geometry" />
        </mxCell>
      </root>
    </mxGraphModel>
  </diagram>
</mxfile>
